# xmcd
#
# Track frame offsets:
#	150
#	16593
#	29023
#	38686
#	51997
#	68337
#	80108
#	101248
#	115856
#	129519
#	146421
#	157096
#	172824
#	183570
#	201168
#	214173
#	230179
#	246452
#	259442
#	276493
#
# Disc length: 3874 seconds
#
# Revision: 1
# Processed by: cddbd v1.5.2PL0 Copyright (c) Steve Scherf et al.
# Submitted via: audiograbber 1.83.01
#
DISCID=300f2014
DTITLE=RMCMA - Record Vol 03
DYEAR=2000
DGENRE=
TTITLE0=Rebound - Keith Jackson
TTITLE1=Hard Core Redneck - Leo Hayes
TTITLE2=Live Lives On - Rusty Creech
TTITLE3=Lots Of Luck - Nat Chavis
TTITLE4=Anytime, Anywhere, Anyplace - Sandy Randall and Bobby Barrage
TTITLE5=Lay The Sugar On - Peter Britt
TTITLE6=Misty´s Mountain Memoris Pub - Dc Sayner
TTITLE7=I Don´t Even Kmow His Name - Rc Youngblood
TTITLE8=Rowdy Child - Dave Martin
TTITLE9=Country Music Hero - Misty Dawn
TTITLE10=A New Love Or Two - Danny Edwards
TTITLE11=Give Me Back To You - Bobby Louis
TTITLE12=If I Had The Means - Leo Hayes
TTITLE13=Every Seson - Judy Welden
TTITLE14=Sitting On The Bayou By You - Rusty Crrech
TTITLE15=Words Don´t Tell It All - Nat Chavis
TTITLE16=Lie To Him - Barbara Wheaton
TTITLE17=Power Of The Bottle - Danny Edwards
TTITLE18=Selfish - Sunshine
TTITLE19=I Love You, Goodbye - Dc Sayner
EXTD=
EXTT0=
EXTT1=
EXTT2=
EXTT3=
EXTT4=
EXTT5=
EXTT6=
EXTT7=
EXTT8=
EXTT9=
EXTT10=
EXTT11=
EXTT12=
EXTT13=
EXTT14=
EXTT15=
EXTT16=
EXTT17=
EXTT18=
EXTT19=
PLAYORDER=
